<svg xmlns="http://www.w3.org/2000/svg" xmlns:xlink="http://www.w3.org/1999/xlink" viewBox="0,0,256,256" width="50px" height="50px" fill-rule="nonzero"><g fill="#024e00" fill-rule="nonzero" stroke="none" stroke-width="1" stroke-linecap="butt" stroke-linejoin="miter" stroke-miterlimit="10" stroke-dasharray="" stroke-dashoffset="0" font-family="none" font-weight="none" font-size="none" text-anchor="none" style="mix-blend-mode: normal"><g transform="scale(5.12,5.12)"><path d="M25.24414,2c-10.37205,0 -18.57031,8.7073 -18.57031,19.15625c0,5.62485 3.5393,12.15349 7.51367,17.41406c1.98718,2.63029 4.09413,4.93058 5.99219,6.60156c0.94903,0.83549 1.84405,1.51406 2.67187,2.00391c0.82782,0.48984 1.5733,0.82422 2.39258,0.82422c0.80479,0 1.47862,-0.34935 2.25586,-0.83984c0.77724,-0.49049 1.62895,-1.16774 2.54102,-2.00195c1.82414,-1.66842 3.88305,-3.96518 5.83789,-6.59375c3.90968,-5.25714 7.44727,-11.78335 7.44727,-17.4082c0,-10.44895 -8.16872,-19.15625 -18.08203,-19.15625zM25.24414,4c8.73669,0 16.08203,7.7492 16.08203,17.15625c0,4.74815 -3.28141,11.14373 -7.05273,16.21484c-1.88566,2.53556 -3.88237,4.75614 -5.58398,6.3125c-0.85081,0.77818 -1.63024,1.38912 -2.25781,1.78516c-0.62757,0.39604 -1.13179,0.53125 -1.1875,0.53125c-0.16322,0 -0.7046,-0.14823 -1.375,-0.54492c-0.6704,-0.39669 -1.48472,-1.00826 -2.36719,-1.78516c-1.76494,-1.5538 -3.80443,-3.77085 -5.71875,-6.30469c-3.82863,-5.06767 -7.10937,-11.46083 -7.10937,-16.20898c0,-9.40705 7.31637,-17.15625 16.57031,-17.15625zM25,10c-0.49116,0 -0.95612,0.04531 -1.39844,0.10742c-0.38057,0.05327 -0.69696,0.31988 -0.81397,0.68591c-0.11701,0.36603 -0.01395,0.76673 0.26514,1.03088c0.58499,0.55316 0.94727,1.31367 0.94727,2.17578c0,1.66848 -1.33152,3 -3,3c-1.29058,0 -2.36603,-0.80841 -2.79492,-1.94336c-0.13571,-0.35929 -0.46519,-0.60912 -0.84777,-0.64284c-0.38258,-0.03372 -0.75068,0.15463 -0.94715,0.48464c-0.88798,1.49106 -1.41016,3.23674 -1.41016,5.10156c0,5.51133 4.48867,10 10,10c5.51133,0 10,-4.48867 10,-10c0,-5.51133 -4.48867,-10 -10,-10zM25.59961,12.12109c4.13291,0.32069 7.40039,3.66121 7.40039,7.87891c0,4.43067 -3.56933,8 -8,8c-4.43067,0 -8,-3.56933 -8,-8c0,-0.95596 0.21978,-1.8442 0.5293,-2.69141c0.90931,0.96231 2.04693,1.69141 3.4707,1.69141c2.74952,0 5,-2.25048 5,-5c0,-0.66843 -0.15954,-1.29603 -0.40039,-1.87891z"></path></g></g></svg>